# xmcd
#
# Track frame offsets: 
#        150
#        16092
#        34127
#        46568
#        63426
#        84175
#        98873
#        111943
#        133332
#        155473
#        173485
#        185150
#        198646
#        210000
#
# Disc length: 2936 seconds
#
# Revision: 1
# Processed by: cddbd v1.5.2PL0 Copyright (c) Steve Scherf et al.
# Submitted via: ExactAudioCopy v1.3
#
DISCID=af0b760e
DTITLE=Various Artist - Soulbag Sampler, Dec 2006
DYEAR=2006
DGENRE=Blues
TTITLE0=Barrelhouse Chuck - Floyd's blues
TTITLE1=Mitch Woods - Big easy boogie
TTITLE2=Eric Bibb - Storybook hero
TTITLE3=Alabama Slim - The mighty flood
TTITLE4=Lil' Dave Thomson - Out in the cold
TTITLE5=O.C.Blues - Blues night
TTITLE6=Nicole Willis and The Soul Investigators - My four leaf clover
TTITLE7=James Blood Ulmer - Take my music back to the church
TTITLE8=Piney Brown - Kokomo
TTITLE9=Yann Cole - Superman of the night
TTITLE10=Sophie Borgeaud - Love me baby
TTITLE11=Eddie Taylor Jr - Pink champagne
TTITLE12=The Dominoes - Sixty minute man
TTITLE13=Mabel Scott - Boogie woogie Santa Claus
EXTD=
EXTT0=
EXTT1=
EXTT2=
EXTT3=
EXTT4=
EXTT5=
EXTT6=
EXTT7=
EXTT8=
EXTT9=
EXTT10=
EXTT11=
EXTT12=
EXTT13=
PLAYORDER=
